<?xml version="1.0" encoding="UTF-8" standalone="no"?>
<!-- Created with Inkscape (http://www.inkscape.org/) -->

<svg
   width="210mm"
   height="297mm"
   viewBox="0 0 210 297"
   version="1.1"
   id="svg1"
   inkscape:version="1.4.4 (dcaf3e7d9e, 2026-05-05)"
   sodipodi:docname="drawing.svg"
   xmlns:inkscape="http://www.inkscape.org/namespaces/inkscape"
   xmlns:sodipodi="http://sodipodi.sourceforge.net/DTD/sodipodi-0.dtd"
   xmlns="http://www.w3.org/2000/svg"
   xmlns:svg="http://www.w3.org/2000/svg">
  <sodipodi:namedview
     id="namedview1"
     pagecolor="#505050"
     bordercolor="#eeeeee"
     borderopacity="1"
     inkscape:showpageshadow="0"
     inkscape:pageopacity="0"
     inkscape:pagecheckerboard="0"
     inkscape:deskcolor="#505050"
     inkscape:document-units="mm"
     inkscape:zoom="0.71000982"
     inkscape:cx="395.76917"
     inkscape:cy="545.7671"
     inkscape:window-width="1920"
     inkscape:window-height="1006"
     inkscape:window-x="0"
     inkscape:window-y="0"
     inkscape:window-maximized="1"
     inkscape:current-layer="layer1" />
  <defs
     id="defs1">
    <clipPath
       clipPathUnits="userSpaceOnUse"
       id="clipPath4550">
      <path
         d="M 0,332.67351 H 940.53802 V -898.76752 H 0 Z"
         id="path4550" />
    </clipPath>
  </defs>
  <g
     inkscape:label="Layer 1"
     inkscape:groupmode="layer"
     id="layer1">
    <g
       id="g1"
       transform="matrix(1.0197488,0,0,1.0197488,-1.7660345,-1.419097)">
      <path
         id="path4541"
         d="m 41.799007,279.59209 c 1.351974,0 2.529913,-0.21217 3.533598,-0.63762 1.003686,-0.42501 1.773519,-1.02081 2.310363,-1.78783 0.536412,-0.76636 0.804943,-1.65842 0.804943,-2.67641 0,-1.51887 -0.589078,-2.71068 -1.766799,-3.575 -1.177938,-0.86433 -2.80538,-1.29648 -4.882105,-1.29648 h -8.049426 v 9.97334 z m -10.579556,2.52992 v -15.03297 h 10.579556 c 1.811879,0 3.411361,0.31015 4.798663,0.93022 1.386434,0.62051 2.463375,1.49176 3.230391,2.61357 0.766364,1.12246 1.149545,2.40811 1.149545,3.8574 0,1.4638 -0.383181,2.77417 -1.149545,3.93086 -0.767016,1.15735 -1.847208,2.0633 -3.241011,2.71825 -1.39402,0.65519 -2.989601,0.98267 -4.788043,0.98267 z"
         style="fill:#489fb5;fill-opacity:1;fill-rule:nonzero;stroke:none;stroke-width:0.216732" />
      <path
         id="path4542"
         d="M 72.450545,281.913 H 54.323083 v -14.59408 h 18.127462 v 2.52992 H 56.853212 v 3.65886 h 8.300187 v 2.42545 h -8.300187 v 3.44994 h 15.597333 z"
         style="fill:#489fb5;fill-opacity:1;fill-rule:nonzero;stroke:none;stroke-width:0.216732" />
      <path
         id="path4543"
         d="m 77.719412,282.12212 v -2.50889 h 12.984195 c 0.752276,0 1.338104,-0.17793 1.75596,-0.53338 0.418292,-0.35544 0.627444,-0.83962 0.627444,-1.45319 0,-1.17099 -0.794544,-1.75617 -2.383404,-1.75617 l -9.994383,0.021 c -1.519289,0 -2.718247,-0.36952 -3.596233,-1.10815 -0.877979,-0.73884 -1.317295,-1.74924 -1.317295,-3.03186 0,-0.83615 0.216083,-1.61335 0.648462,-2.33139 0.431949,-0.71782 1.024277,-1.28912 1.776989,-1.71456 0.752705,-0.4248 1.581923,-0.63762 2.488077,-0.63762 h 12.649782 v 2.4883 H 80.709224 c -0.724967,0 -1.303422,0.19137 -1.735372,0.57477 -0.432164,0.38361 -0.648025,0.88166 -0.648025,1.49479 0,0.61379 0.198524,1.05592 0.595793,1.32792 0.397275,0.27201 0.993067,0.40768 1.787604,0.40768 l 10.036209,-0.021 c 0.961858,0 1.811884,0.18139 2.550724,0.54356 0.738618,0.36302 1.309708,0.86779 1.714564,1.51604 0.40399,0.64802 0.606199,1.39055 0.606199,2.2267 0,0.85046 -0.205896,1.61704 -0.616822,2.29997 -0.411356,0.68292 -0.990026,1.21976 -1.735587,1.60987 -0.74556,0.39012 -1.599482,0.58562 -2.560904,0.58562 z"
         style="fill:#489fb5;fill-opacity:1;fill-rule:nonzero;stroke:none;stroke-width:0.216732" />
      <path
         id="path4544"
         d="m 101.28284,281.91298 h -2.529921 v -14.63591 h 2.529921 z"
         style="fill:#489fb5;fill-opacity:1;fill-rule:nonzero;stroke:none;stroke-width:0.216732" />
      <path
         id="path4545"
         d="m 113.20029,282.12212 c -1.70071,0 -3.19897,-0.32055 -4.49503,-0.96185 -1.29627,-0.64088 -2.29996,-1.53684 -3.01083,-2.68683 -0.71089,-1.14998 -1.06633,-2.45666 -1.06633,-3.92025 0,-1.46359 0.35544,-2.75986 1.06633,-3.88882 0.71087,-1.12918 1.71456,-2.01062 3.01083,-2.64522 1.29606,-0.63415 2.79432,-0.95123 4.49503,-0.95123 h 11.03988 v 2.53012 h -11.03988 c -1.90942,0 -3.39402,0.44257 -4.45298,1.3275 -1.06004,0.88535 -1.5893,2.09427 -1.5893,3.62765 0,1.01778 0.24036,1.90615 0.72107,2.66581 0.48115,0.75986 1.17816,1.34547 2.09103,1.75618 0.91309,0.41157 1.9896,0.61704 3.23018,0.61704 h 8.67707 v -3.28285 h -2.59232 v -2.5297 h 5.12246 v 8.34245 z"
         style="fill:#489fb5;fill-opacity:1;fill-rule:nonzero;stroke:none;stroke-width:0.216732" />
      <path
         id="path4546"
         d="m 130.28239,281.913 h -2.5299 v -14.63591 h 2.98959 l 15.9324,11.87604 v -11.87604 h 2.50911 V 281.913 h -2.96901 l -15.93219,-12.12703 z"
         style="fill:#489fb5;fill-opacity:1;fill-rule:nonzero;stroke:none;stroke-width:0.216732" />
      <path
         id="path4547"
         d="m 155.72781,267.31885 -1.35934,3.44972 h -1.83983 l 0.98287,-3.44972 z"
         style="fill:#489fb5;fill-opacity:1;fill-rule:nonzero;stroke:none;stroke-width:0.216732" />
      <path
         id="path4548"
         d="m 160.99635,282.12212 v -2.50889 h 12.9842 c 0.75227,0 1.3381,-0.17793 1.75596,-0.53338 0.41829,-0.35544 0.62744,-0.83962 0.62744,-1.45319 0,-1.17099 -0.79453,-1.75617 -2.3834,-1.75617 l -9.99438,0.021 c -1.51929,0 -2.71826,-0.36952 -3.59624,-1.10815 -0.87798,-0.73884 -1.31729,-1.74924 -1.31729,-3.03186 0,-0.83615 0.21608,-1.61335 0.64847,-2.33139 0.43194,-0.71782 1.02427,-1.28912 1.77698,-1.71456 0.75271,-0.4248 1.58192,-0.63762 2.48808,-0.63762 h 12.64978 v 2.4883 h -12.64978 c -0.72497,0 -1.30343,0.19137 -1.73537,0.57477 -0.43216,0.38361 -0.64804,0.88166 -0.64804,1.49479 0,0.61379 0.19854,1.05592 0.59581,1.32792 0.39727,0.27201 0.99306,0.40768 1.7876,0.40768 l 10.0362,-0.021 c 0.96187,0 1.81188,0.18139 2.55072,0.54356 0.73863,0.36302 1.30972,0.86779 1.71458,1.51604 0.40398,0.64802 0.60619,1.39055 0.60619,2.2267 0,0.85046 -0.20589,1.61704 -0.61682,2.29997 -0.41135,0.68292 -0.99003,1.21976 -1.73559,1.60987 -0.74556,0.39012 -1.59948,0.58562 -2.5609,0.58562 z"
         style="fill:#489fb5;fill-opacity:1;fill-rule:nonzero;stroke:none;stroke-width:0.216732" />
      <path
         id="path4549"
         d="m 0,0 v 332.674 h 149.828 l 41.178,-202.938 41.169,202.938 H 383.157 V 0 H 293.365 V 239.724 L 236.754,0 H 148.683 L 88.639,239.724 V 0 Z"
         style="fill:#f6a332;fill-opacity:1;fill-rule:nonzero;stroke:none"
         transform="matrix(0.21673199,0,0,-0.21673199,3.1344514,87.33045)"
         clip-path="url(#clipPath4550)" />
      <path
         id="path4551"
         d="m 124.53499,139.77677 c 0.65799,-2.38188 0.98808,-5.7176 0.98808,-10.00435 V 54.724862 c 0,-3.332905 -0.30992,-6.04639 -0.92761,-8.131568 -0.6179,-2.08236 -1.87538,-3.126359 -3.77092,-3.126359 -3.54335,0 -5.31622,3.873868 -5.31622,11.615535 v 74.86724 c 0,4.40898 0.37234,7.74471 1.1127,10.00739 0.74253,2.26268 2.10273,3.39402 4.08084,3.39402 1.89532,0 3.17101,-1.18964 3.83313,-3.57435 m -23.36739,20.63072 c -4.448865,-7.57327 -6.674482,-18.21546 -6.674482,-31.93242 V 55.30722 c 0,-13.236472 2.225617,-23.226517 6.674482,-29.96428 4.45103,-6.737547 10.96035,-10.10643 19.53426,-10.10643 8.56981,0 15.08325,3.368883 19.53212,10.10643 4.45101,6.737763 6.67643,16.727808 6.67643,29.96428 v 73.16785 c 0,13.83616 -2.22542,24.50762 -6.67643,32.02259 -4.44887,7.51214 -10.96231,11.27114 -19.53212,11.27114 -8.57391,0 -15.08323,-3.78522 -19.53426,-11.36131"
         style="fill:#f6a332;fill-opacity:1;fill-rule:nonzero;stroke:none;stroke-width:0.216732" />
      <path
         id="path4552"
         d="m 161.36111,115.51843 c -4.28587,-4.74469 -6.42892,-12.39641 -6.42892,-22.952779 V 82.254848 h 20.89448 v 13.133743 c 0,5.238189 1.68812,7.855229 5.06872,7.855229 1.89336,0 3.21326,-0.55137 3.95579,-1.65605 0.74057,-1.10489 1.1127,-2.966843 1.1127,-5.585828 0,-3.436291 -0.4144,-6.279161 -1.23733,-8.530786 -0.8251,-2.249461 -1.87538,-4.131345 -3.15106,-5.645653 -1.2798,-1.514522 -3.56762,-3.867798 -6.86152,-7.058307 l -9.14934,-9.084106 c -7.08887,-6.872354 -10.63244,-14.483981 -10.63244,-22.828813 0,-9.00218 2.08063,-15.854595 6.24384,-20.56158 4.16125,-4.704818 10.23993,-7.056144 18.23431,-7.056144 9.55983,0 16.44346,2.515175 20.64697,7.547692 4.2033,5.032516 6.30408,12.909857 6.30408,23.628121 h -21.63484 l -0.12288,-7.2421 c 0,-1.390553 -0.39228,-2.495235 -1.17512,-3.314265 -0.78458,-0.817297 -1.87516,-1.226703 -3.27569,-1.226703 -1.64998,0 -2.88557,0.451453 -3.7085,1.350457 -0.82489,0.900954 -1.23754,2.127657 -1.23754,3.682059 0,3.43607 1.97811,6.996326 5.93607,10.678169 l 12.36261,11.785019 c 2.88363,2.783056 5.27201,5.422201 7.1695,7.915268 1.89553,2.497403 3.41873,5.444091 4.57369,8.838328 1.15302,3.396407 1.73039,7.425891 1.73039,12.090827 0,10.392505 -1.91547,18.269845 -5.74665,23.628125 -3.83334,5.35999 -10.15953,8.04097 -18.979,8.04097 -9.64219,0 -16.60839,-2.37322 -20.89232,-7.12009"
         style="fill:#f6a332;fill-opacity:1;fill-rule:nonzero;stroke:none;stroke-width:0.216732" />
      <path
         id="path4553"
         d="M 14.270359,246.68129 3.1344527,100.66917 H 23.471498 l 5.810151,92.13016 5.810369,-92.13016 h 19.367604 l 5.570012,92.13016 5.567842,-92.13016 H 86.17683 L 74.79667,246.68129 H 49.861003 l -5.205253,-70.37092 -4.963162,70.37092 z"
         style="fill:#f6a332;fill-opacity:1;fill-rule:nonzero;stroke:none;stroke-width:0.216732" />
      <path
         id="path4554"
         d="M 98.016088,246.68129 V 185.10751 H 143.7188 v 11.89902 h -23.17298 v 11.97119 h 20.85546 v 11.61208 h -20.85546 v 14.12138 h 23.17298 v 11.97011 z"
         style="fill:#f6a332;fill-opacity:1;fill-rule:nonzero;stroke:none;stroke-width:0.216732" />
      <path
         id="path4555"
         d="M 154.93213,246.68129 V 135.97718 h 21.83098 l 9.74211,52.96822 v -52.96822 h 20.4738 V 246.68129 H 186.25815 L 175.65302,191.2653 v 55.41599 z"
         style="fill:#f6a332;fill-opacity:1;fill-rule:nonzero;stroke:none;stroke-width:0.216732" />
    </g>
  </g>
</svg>
